<?xml version="1.0" encoding="UTF-8"?>
<svg id="Layer_1" data-name="Layer 1" xmlns="http://www.w3.org/2000/svg" viewBox="0 0 584.9 388.53">
  <defs>
    <style>
      .cls-1 {
        fill: #4d4398;
      }

      .cls-1, .cls-2, .cls-3 {
        fill-rule: evenodd;
      }

      .cls-2 {
        fill: #d6cee6;
      }

      .cls-3 {
        fill: #f4f2f8;
      }
    </style>
  </defs>
  <path class="cls-1" d="M83.86,118.87C109.34,62.74,159.06,21.15,219.04,6.08c59.81-15.02,123.47-1.83,172.36,35.47,33.71-9.41,69.44,7.07,84.19,38.76,45.18,7.1,83.46,37.6,100.34,80.42,17.53,44.46,8.94,95.54-22.17,131.81-29.99,34.97-76.18,51.27-121.23,43.16-56.28,59.1-146.9,69.95-215.55,25.74-33.43,11.58-70.74-2.12-88.85-32.26-35.8,6.98-73.31-4.81-98.63-31.5C2.23,268.95-7.01,227.51,5.46,189.9c11.91-35.91,41.75-62.78,78.4-71.03Z"/>
  <path class="cls-3" d="M389.43,52.53C342.32,14.55,280.12,.89,221.44,15.64c-58.68,14.74-107.04,56.17-130.61,111.9-35.47,6.14-64.68,31.3-76.01,65.47-11.33,34.17-2.94,71.8,21.84,97.91,24.77,26.11,61.91,36.48,96.63,26.96,14.8,32.08,52.46,46.52,84.91,32.55,66.66,45.86,157.03,34.94,210.86-25.47,43.25,9.79,88.37-5.15,117.24-38.81,28.87-33.66,36.75-80.53,20.48-121.79-16.27-41.25-54.02-70.13-98.09-75.03-11.76-32.01-47.21-48.47-79.25-36.79Z"/>
  <path class="cls-2" d="M389.43,52.53C342.32,14.55,280.12,.89,221.44,15.64c60.6-9.12,122.17,8.69,168.54,48.77,15.59-6.05,33.12-4.41,47.32,4.43,14.2,8.84,23.41,23.85,24.86,40.51,50.46,16.59,79.19,69.69,65.47,121-13.72,51.31-65.12,82.98-117.12,72.17-20.96,29.63-53.64,48.82-89.73,52.68-36.09,3.86-72.09-7.98-98.84-32.51-14.57,11.83-34.31,15.08-51.9,8.53-17.59-6.54-30.41-21.9-33.71-40.37-42.06,23.5-95.18,9.32-119.93-32.02,4.52,11.73,11.33,22.67,20.28,32.1,24.77,26.11,61.91,36.48,96.63,26.96,14.8,32.08,52.46,46.52,84.91,32.55,66.66,45.86,157.03,34.94,210.86-25.47,43.25,9.79,88.37-5.15,117.24-38.81,28.87-33.66,36.75-80.53,20.48-121.79-16.27-41.25-54.02-70.13-98.09-75.03-11.76-32.01-47.21-48.47-79.25-36.79Z"/>
  <path class="cls-1" d="M269.55,203.8v1.87c0,14.01,8.35,24.75,22.94,24.75s22.94-10.74,22.94-24.75v-1.85c0-.14-.01-.28-.01-.42,0-3.43,2.78-6.2,6.2-6.2s6.2,2.78,6.2,6.2c0,.14,0,.27-.01,.41v1.87c0,21.01-14,37.13-35.31,37.13s-35.31-16.12-35.31-37.13v-1.85c0-.14-.02-.28-.02-.42,0-3.43,2.78-6.2,6.2-6.2s6.2,2.78,6.2,6.2c0,.14,0,.27-.01,.41Z"/>
  <g>
    <path class="cls-1" d="M351.38,181.69c-14.36,0-26-15.56-26-34.76s11.64-34.76,26-34.76,26,15.56,26,34.76-11.64,34.76-26,34.76Z"/>
    <path class="cls-1" d="M233.58,181.69c-14.36,0-26-15.56-26-34.76s11.64-34.76,26-34.76,26,15.56,26,34.76-11.64,34.76-26,34.76Z"/>
    <path class="cls-3" d="M241.43,161.35c-6.39,0-11.57-7.51-11.57-16.78s5.18-16.78,11.57-16.78,11.57,7.51,11.57,16.78-5.18,16.78-11.57,16.78Z"/>
    <path class="cls-3" d="M343.53,161.35c6.39,0,11.57-7.51,11.57-16.78s-5.18-16.78-11.57-16.78-11.57,7.51-11.57,16.78,5.18,16.78,11.57,16.78Z"/>
  </g>
  <path class="cls-2" d="M426.76,108.73c9.4-10.63,25.36-12.31,36.76-3.86,11.4,8.44,14.46,24.2,7.03,36.29-.94-10.37-6.27-19.84-14.63-26.03-8.37-6.19-18.98-8.52-29.17-6.4Z"/>
</svg>